<?xml version="1.0"?>
<!DOCTYPE svg PUBLIC "-//W3C//DTD SVG 1.1//EN" "http://www.w3.org/Graphics/SVG/1.1/DTD/svg11.dtd">
<svg width="336.6mm" height="225.55134mm" viewBox="0 0 336.6 225.55134" xmlns="http://www.w3.org/2000/svg" version="1.1">
<g id="Part__Part2DObjectPython" transform="translate(13.300000,222.251340) scale(1,-1)" style="fill-opacity:1;fill-rule:evenodd;fill:#a0aec0">
<path id="Part__Part2DObjectPython_w0000"  d="M 45.0 0.0 L 70.0 40.0 L 85.0 40.0 L 70.0 15.0 L 250.0 15.0 L 235.0 40.0 L 250.0 40.0 L 275.0 0.0 L 45.0 0.0 " stroke="#a0aec0" stroke-width="0.7 px" style="stroke-width:0.7;stroke-miterlimit:4;stroke-dasharray:none;stroke-linecap:square;fill:#a0aec0;fill-opacity:1;fill-rule: evenodd"/>
<path id="Part__Part2DObjectPython_w0001"  d="M -10.0 120.0 L 25.0 50.0 L 30.0 50.0 L 65.0 120.0 L 55.0 120.0 L 29.999999999999996 70.0 L 5.0 120.0 L -10.0 120.0 " stroke="#a0aec0" stroke-width="0.7 px" style="stroke-width:0.7;stroke-miterlimit:4;stroke-dasharray:none;stroke-linecap:square;fill:#a0aec0;fill-opacity:1;fill-rule: evenodd"/>
<path id="Part__Part2DObjectPython_w0002"  d="M 35.0 50.0 L 70.0 120.0 L 105.0 120.0 L 100.0 110.0 L 80.0 110.0 L 70.0 90.0 L 90.0 90.0 L 85.0 80.0 L 65.0 80.0 L 55.0 60.0 L 75.0 60.0 L 70.0 50.0 L 35.0 50.0 " stroke="#a0aec0" stroke-width="0.7 px" style="stroke-width:0.7;stroke-miterlimit:4;stroke-dasharray:none;stroke-linecap:square;fill:#a0aec0;fill-opacity:1;fill-rule: evenodd"/>
<path id="Part__Part2DObjectPython_w0003"  d="M 75.0 50.0 L 110.0 120.0 L 125.0 120.0 L 95.0 60.0 L 120.0 60.0 L 125.0 50.0 L 75.0 50.0 " stroke="#a0aec0" stroke-width="0.7 px" style="stroke-width:0.7;stroke-miterlimit:4;stroke-dasharray:none;stroke-linecap:square;fill:#a0aec0;fill-opacity:1;fill-rule: evenodd"/>
<path id="Part__Part2DObjectPython_w0004"  d="M 130.0 50.0 L 125.0 60.0 L 125.0 110.0 L 130.0 120.0 L 160.0 120.0 L 160.0 50.0 L 130.0 50.0 Z M 135.0 60.0 L 150.0 60.0 L 150.0 110.0 L 135.0 110.0 Z" stroke="#a0aec0" stroke-width="0.7 px" style="stroke-width:0.7;stroke-miterlimit:4;stroke-dasharray:none;stroke-linecap:square;fill:#a0aec0;fill-opacity:1;fill-rule:evenodd"/>
<path id="Part__Part2DObjectPython_w0006"  d="M 165.0 120.0 L 165.0 50.0 L 225.0 50.0 L 220.0 60.0 L 175.0 60.0 L 175.0 110.0 L 195.0 110.0 L 190.0 120.0 L 165.0 120.0 " stroke="#a0aec0" stroke-width="0.7 px" style="stroke-width:0.7;stroke-miterlimit:4;stroke-dasharray:none;stroke-linecap:square;fill:#a0aec0;fill-opacity:1;fill-rule: evenodd"/>
<path id="Part__Part2DObjectPython_w0007"  d="M 115.0 130.0 L 160.0 218.95134 L 205.0 130.0 L 190.0 130.0 L 160.0 190.0 L 130.0 130.0 L 115.0 130.0 " stroke="#a0aec0" stroke-width="0.7 px" style="stroke-width:0.7;stroke-miterlimit:4;stroke-dasharray:none;stroke-linecap:square;fill:#a0aec0;fill-opacity:1;fill-rule: evenodd"/>
<path id="Part__Part2DObjectPython_w0008"  d="M 195.0 120.0 L 230.0 50.0 L 245.0 50.0 L 210.0 120.0 L 195.0 120.0 " stroke="#a0aec0" stroke-width="0.7 px" style="stroke-width:0.7;stroke-miterlimit:4;stroke-dasharray:none;stroke-linecap:square;fill:#a0aec0;fill-opacity:1;fill-rule: evenodd"/>
<path id="Part__Part2DObjectPython_w0009"  d="M 215.0 120.0 L 220.0 110.0 L 233.171814 110.0 L 263.153748 50.0 L 280.0 50.0 L 247.820541 110.0 L 265.0 110.0 L 260.0 120.0 L 215.0 120.0 " stroke="#a0aec0" stroke-width="0.7 px" style="stroke-width:0.7;stroke-miterlimit:4;stroke-dasharray:none;stroke-linecap:square;fill:#a0aec0;fill-opacity:1;fill-rule: evenodd"/>
<path id="Part__Part2DObjectPython_w0010"  d="M 265.0 120.0 L 285.0 80.0 L 280.0 70.0 L 280.0 60.0 L 285.0 50.0 L 320.0 120.0 L 305.0 120.0 L 290.0 90.0 L 275.0 120.0 L 265.0 120.0 " stroke="#a0aec0" stroke-width="0.7 px" style="stroke-width:0.7;stroke-miterlimit:4;stroke-dasharray:none;stroke-linecap:square;fill:#a0aec0;fill-opacity:1;fill-rule: evenodd"/>
<title>VelocityNvim Footer Logo</title>
</g>
</svg>
